<svg width="324" height="91" viewBox="0 0 324 91" fill="none" xmlns="http://www.w3.org/2000/svg">
<path fill-rule="evenodd" clip-rule="evenodd" d="M43.4769 47.2457V31.6201L0.852016 47.6774H0.76355V63.7103H0.852016L43.4769 79.7677V64.1177L21.6256 55.6613L43.4769 47.2457Z" fill="#8257E6"/>
<path fill-rule="evenodd" clip-rule="evenodd" d="M280.578 78.9469V63.3213L302.413 54.9138L280.578 46.5063V30.8808L323.146 46.9299H323.252V62.9791H323.146L280.578 78.9469ZM262.298 8.78664L237.262 90.1894H252.124L277.16 8.78664H262.298Z" fill="#8257E6"/>
<path fill-rule="evenodd" clip-rule="evenodd" d="M106.114 28.6613C110.343 33.3711 112.568 39.5798 112.307 45.9407V80.6135H97.4441V49.126C97.6171 45.6183 96.5124 42.1684 94.3398 39.4314C93.3216 38.2305 92.0479 37.2789 90.6146 36.6482C89.1812 36.0175 87.6255 35.724 86.0641 35.7898C76.7563 35.7898 72.1025 42.3289 72.1025 55.4073V80.6135H57.2401V23.6918H72.1025V28.8324C74.4371 26.5331 77.2105 24.7409 80.2529 23.5656C83.2954 22.3903 86.5426 21.8565 89.7958 21.9972C92.8273 21.8673 95.8512 22.3946 98.6654 23.5439C101.48 24.6931 104.019 26.4379 106.114 28.6613Z" fill="#E1E1E6"/>
<path fill-rule="evenodd" clip-rule="evenodd" d="M127.486 0.0196228V81.4225H142.349V0.0196228H127.486Z" fill="#E1E1E6"/>
<path fill-rule="evenodd" clip-rule="evenodd" d="M222.599 78.4339H210.199L198.038 44.9017L185.765 78.4339H173.379L152.542 21.4064H168.425L180.135 55.5088L192.199 21.4064H203.796L215.86 55.6229L227.57 21.4064H243.454L222.599 78.4339Z" fill="#E1E1E6"/>
</svg>
