<svg width="29" height="29" viewBox="0 0 29 29" fill="none" xmlns="http://www.w3.org/2000/svg">
<path d="M14.335 0C6.43068 0 0 6.43068 0 14.335C0 22.2393 6.43068 28.67 14.335 28.67C22.2393 28.67 28.67 22.2393 28.67 14.335C28.67 6.43068 22.2393 0 14.335 0ZM2.867 14.335C2.867 11.6888 3.77584 9.25754 5.28675 7.31515L21.3548 23.3833C19.4139 24.8942 16.9812 25.803 14.335 25.803C8.01183 25.803 2.867 20.6582 2.867 14.335ZM23.3833 21.3548L7.31515 5.28675C9.25754 3.77584 11.6888 2.867 14.335 2.867C20.6582 2.867 25.803 8.01183 25.803 14.335C25.803 16.9812 24.8927 19.4125 23.3833 21.3548Z" fill="#04D361"/>
</svg>
