<svg width="82" height="84" viewBox="0 0 82 84" fill="none" xmlns="http://www.w3.org/2000/svg">
<path d="M3.22623 57.6513C5.29102 62.5122 8.21613 66.8569 11.9586 70.5993C15.701 74.3417 20.0457 77.2668 24.9064 79.3317C29.4662 81.2673 34.2411 82.3427 39.188 82.5148V79.2885C34.6713 79.1165 30.3265 78.1272 26.1539 76.3634C21.6802 74.4707 17.6798 71.7608 14.1954 68.3194C10.7541 64.8781 8.04406 60.8346 6.15135 56.3609C4.17259 51.7151 3.18321 46.8112 3.18321 41.7353C3.18321 41.2191 3.18321 40.6599 3.22623 40.1437C3.26925 39.0683 3.35527 37.9929 3.48433 36.9175C3.9145 33.5621 4.81783 30.25 6.15135 27.1097C8.04406 22.6359 10.7541 18.5924 14.1954 15.1512C16.5183 12.8283 19.0993 10.8065 21.9383 9.2149C22.8847 8.6987 23.831 8.18251 24.7775 7.70932L23.3149 4.82722C22.3256 5.30041 21.3791 5.77359 20.4759 6.3328C17.3356 8.13949 14.4965 10.3333 11.9155 12.8713C8.17312 16.6137 5.248 20.9584 3.18321 25.8192C1.72065 29.4325 0.731279 33.132 0.301115 36.9175C0.172065 37.9929 0.0860327 39.0683 0.0430164 40.1437C0 40.7028 0 41.2191 0 41.7782C0 47.2844 1.07541 52.6185 3.22623 57.6513ZM45.6404 82.2998C49.4258 81.8696 53.1682 80.8802 56.6956 79.3746C61.5565 77.3099 65.9011 74.3848 69.6435 70.6422C71.1061 69.1798 72.4396 67.6312 73.644 65.9965C74.2893 65.1362 74.8915 64.1899 75.4938 63.2865C76.6121 61.5228 77.5585 59.6301 78.3759 57.6944C79.8815 54.1239 80.8708 50.4245 81.301 46.6392H78.0748C77.6446 49.9945 76.7412 53.3067 75.4078 56.4468C74.7624 57.9954 73.9881 59.501 73.1279 60.9637C72.5686 61.91 71.9664 62.8134 71.3212 63.7167C70.1167 65.3942 68.7833 66.9428 67.3206 68.4055C63.8794 71.8467 59.8359 74.5568 55.3621 76.4495C52.2219 77.7831 48.9097 78.6863 45.5543 79.1165C44.4789 79.2456 43.4035 79.3317 42.3281 79.3746V82.6009C43.4896 82.5148 44.565 82.4288 45.6404 82.2998ZM27.7886 6.50486C31.9612 4.95628 36.3058 4.18197 40.7795 4.18197C45.8555 4.18197 50.7594 5.17136 55.4051 7.15011C57.3408 7.96742 59.1905 8.9568 60.9542 10.0322C61.8576 10.6344 62.761 11.2367 63.6212 11.9249L65.9011 9.64505C65.0407 8.9568 64.1805 8.35457 63.2771 7.75234C61.2124 6.37582 58.9755 5.21437 56.6956 4.22499C51.6627 2.03116 46.3286 0.95575 40.8225 0.95575C35.8326 0.95575 30.9719 1.85909 26.3261 3.57974L27.7886 6.50486ZM75.4508 27.1528C77.2144 31.2822 78.2038 35.67 78.3759 40.1867C78.4189 40.7028 78.4189 41.2621 78.4189 41.7782C78.4189 42.2945 78.4189 42.8537 78.3759 43.37H81.6021C81.6021 42.8537 81.6451 42.2945 81.6451 41.7782C81.6451 41.2191 81.6451 40.7028 81.6021 40.1867C81.4301 35.2398 80.3547 30.465 78.4189 25.9053C76.3541 21.0444 73.429 16.6998 69.6865 12.9573C69.2564 12.5272 68.8692 12.14 68.439 11.7529L66.1593 14.0327C66.5893 14.4199 67.0195 14.807 67.4067 15.2371C70.848 18.6354 73.5581 22.6359 75.4508 27.1528Z" fill="url(#paint0_radial)"/>
<path d="M59.9455 39.7592V37.3934H21.7039V39.7592H59.9455Z" fill="#04D361"/>
<path d="M25.0357 27.282H21.6805V60.8347H25.0357V27.282Z" fill="#04D361"/>
<path d="M59.9654 27.282H56.61V60.8347H59.9654V27.282Z" fill="#04D361"/>
<path d="M59.9291 28.3002V24.9449H21.6876V28.3002H59.9291Z" fill="#04D361"/>
<path d="M59.9148 62.5267V59.1715L21.6733 59.1714V62.5267H59.9148Z" fill="#04D361"/>
<path d="M33.9834 21.0017H30.6281V31.2397H33.9834V21.0017Z" fill="#04D361"/>
<path d="M51.0183 21.002H47.663V31.2399H51.0183V21.002Z" fill="#04D361"/>
<defs>
<radialGradient id="paint0_radial" cx="0" cy="0" r="1" gradientUnits="userSpaceOnUse" gradientTransform="translate(40.8225 41.7782) rotate(-50.4038) scale(43.3457 45.168)">
<stop stop-color="#8257E6" stop-opacity="0"/>
<stop offset="1" stop-color="#8257E6"/>
</radialGradient>
</defs>
</svg>
