<svg width="29" height="22" viewBox="0 0 29 22" fill="none" xmlns="http://www.w3.org/2000/svg">
<path d="M25.7949 0.260437H3.52349C1.99233 0.260437 0.753483 1.46502 0.753483 2.93729L0.739563 18.9984C0.739563 20.4706 1.99233 21.6752 3.52349 21.6752H25.7949C27.326 21.6752 28.5788 20.4706 28.5788 18.9984V2.93729C28.5788 1.46502 27.326 0.260437 25.7949 0.260437ZM25.7949 4.96513C25.7949 5.36782 25.5837 5.74101 25.2386 5.94844L18.78 9.82981C16.2441 11.3538 13.0742 11.3538 10.5384 9.82981L4.07976 5.94844C3.73461 5.74101 3.52349 5.36782 3.52349 4.96514C3.52349 4.07306 4.49699 3.52232 5.26161 3.98183L11.8338 7.93149C13.5725 8.97635 15.7459 8.97635 17.4845 7.93149L24.0567 3.98183C24.8214 3.52232 25.7949 4.07306 25.7949 4.96513Z" fill="#41414D"/>
</svg>
