<svg width="29" height="36" viewBox="0 0 29 36" fill="none" xmlns="http://www.w3.org/2000/svg">
<path d="M14.335 0C9.3948 0 5.37563 4.01918 5.37563 8.95938V14.335H3.58375C1.60731 14.335 0 15.9423 0 17.9188V32.2538C0 34.2302 1.60731 35.8375 3.58375 35.8375H25.0863C27.0627 35.8375 28.67 34.2302 28.67 32.2538V17.9188C28.67 15.9423 27.0627 14.335 25.0863 14.335H23.2944V8.95938C23.2944 4.01918 19.2752 0 14.335 0ZM25.0863 17.9188L25.0898 32.2538H3.58375V17.9188H25.0863ZM8.95938 14.335V8.95938C8.95938 5.99562 11.3712 3.58375 14.335 3.58375C17.2988 3.58375 19.7106 5.99562 19.7106 8.95938V14.335H8.95938Z" fill="#04D361"/>
</svg>
