<svg width="1187" height="388" viewBox="0 0 1187 388" fill="none" xmlns="http://www.w3.org/2000/svg">
<rect width="1187" height="388" fill="#121214"/>
<path fill-rule="evenodd" clip-rule="evenodd" d="M241.372 197.935V150.974L113.266 199.233H113V247.419H113.266L241.372 295.678V248.643L175.7 223.228L241.372 197.935Z" fill="#8257E6"/>
<path fill-rule="evenodd" clip-rule="evenodd" d="M953.964 293.211V246.25L1019.59 220.981L953.964 195.713V148.752L1081.9 196.986H1082.22V245.221H1081.9L953.964 293.211ZM899.025 82.349L823.782 327H868.449L943.692 82.349H899.025Z" fill="#8257E6"/>
<path fill-rule="evenodd" clip-rule="evenodd" d="M429.624 142.081C442.333 156.236 449.02 174.896 448.236 194.013V298.22H403.567V203.586C404.087 193.044 400.767 182.676 394.238 174.45C391.177 170.84 387.35 167.981 383.042 166.085C378.734 164.189 374.058 163.307 369.366 163.505C341.391 163.505 327.405 183.158 327.405 222.464V298.22H282.737V127.145H327.405V142.595C334.421 135.684 342.757 130.298 351.9 126.766C361.044 123.234 370.804 121.629 380.581 122.052C389.692 121.662 398.78 123.247 407.238 126.701C415.696 130.155 423.328 135.398 429.624 142.081Z" fill="#E1E1E6"/>
<path fill-rule="evenodd" clip-rule="evenodd" d="M493.856 56V300.651H538.527V56H493.856Z" fill="#E1E1E6"/>
<path fill-rule="evenodd" clip-rule="evenodd" d="M779.715 291.669H742.444L705.896 190.89L669.011 291.669H631.787L569.16 120.276H616.898L652.091 222.769L688.349 120.276H723.202L759.46 223.112L794.653 120.276H842.39L779.715 291.669Z" fill="#E1E1E6"/>
</svg>
