<svg width="81" height="72" viewBox="0 0 81 72" fill="none" xmlns="http://www.w3.org/2000/svg">
<path d="M81 36.0082C81 30.6596 74.2803 25.5908 63.9778 22.4475C66.3553 11.9807 65.2986 3.6533 60.6427 0.987226C59.5695 0.361851 58.3147 0.0656208 56.9443 0.0656208V3.73558C57.7038 3.73558 58.3147 3.8837 58.8265 4.16347C61.072 5.44714 62.0461 10.3349 61.2866 16.6216C61.105 18.1686 60.8078 19.7978 60.4446 21.46C57.2085 20.6701 53.6753 20.0612 49.9605 19.6662C47.7315 16.6216 45.4201 13.8568 43.0921 11.4376C48.4745 6.45103 53.5267 3.71913 56.9609 3.71913V0.0491638C52.4205 0.0491638 46.4768 3.27478 40.467 8.87024C34.4572 3.3077 28.5135 0.114993 23.9731 0.114993V3.78496C27.3907 3.78496 32.4594 6.5004 37.8418 11.454C35.5304 13.8732 33.2189 16.6216 31.023 19.6662C27.2917 20.0612 23.7585 20.6701 20.5224 21.4765C20.1427 19.8308 19.862 18.2344 19.6639 16.7039C18.8879 10.4172 19.8455 5.52942 22.0744 4.2293C22.5697 3.93307 23.2136 3.80141 23.9731 3.80141V0.13145C22.5862 0.13145 21.3314 0.42768 20.2417 1.05305C15.6023 3.71913 14.5622 12.03 16.9562 22.4639C6.68671 25.6237 0 30.6761 0 36.0082C0 41.3568 6.71973 46.4257 17.0222 49.569C14.6447 60.0358 15.7014 68.3631 20.3573 71.0292C21.4305 71.6546 22.6853 71.9508 24.0722 71.9508C28.6125 71.9508 34.5563 68.7252 40.566 63.1297C46.5758 68.6923 52.5196 71.885 57.0599 71.885C58.4468 71.885 59.7016 71.5888 60.7913 70.9634C65.4307 68.2973 66.4708 59.9864 64.0768 49.5525C74.3133 46.4092 81 41.3404 81 36.0082ZM59.5035 25.0312C58.8926 27.1542 58.1331 29.343 57.2746 31.5319C56.5976 30.2153 55.8877 28.8987 55.1117 27.5821C54.3522 26.2655 53.5432 24.9819 52.7342 23.7311C55.0787 24.0767 57.3406 24.5046 59.5035 25.0312ZM51.9417 42.5582C50.6539 44.7799 49.3331 46.8865 47.9627 48.8449C45.5027 49.0588 43.0096 49.174 40.5 49.174C38.0069 49.174 35.5139 49.0588 33.0703 48.8613C31.7 46.9029 30.3626 44.8128 29.0748 42.6076C27.82 40.4517 26.6808 38.2629 25.6406 36.0576C26.6643 33.8523 27.82 31.6471 29.0583 29.4912C30.3461 27.2694 31.6669 25.1629 33.0373 23.2045C35.4973 22.9906 37.9904 22.8753 40.5 22.8753C42.9931 22.8753 45.4861 22.9906 47.9297 23.188C49.3 25.1465 50.6374 27.2365 51.9252 29.4418C53.18 31.5977 54.3192 33.7865 55.3594 35.9918C54.3192 38.197 53.18 40.4023 51.9417 42.5582ZM57.2746 40.4188C58.1661 42.624 58.9256 44.8293 59.553 46.9687C57.3901 47.4954 55.1117 47.9397 52.7507 48.2853C53.5597 47.0181 54.3687 45.718 55.1282 44.385C55.8877 43.0684 56.5976 41.7353 57.2746 40.4188ZM40.533 57.9786C38.9976 56.3987 37.4621 54.6378 35.9431 52.7123C37.4291 52.7781 38.948 52.8275 40.4835 52.8275C42.0355 52.8275 43.5709 52.7946 45.0734 52.7123C43.5874 54.6378 42.052 56.3987 40.533 57.9786ZM28.2493 48.2853C25.9048 47.9397 23.6429 47.5118 21.48 46.9852C22.0909 44.8622 22.8504 42.6734 23.7089 40.4846C24.3859 41.8012 25.0958 43.1178 25.8718 44.4343C26.6478 45.7509 27.4403 47.0346 28.2493 48.2853ZM40.4505 14.0378C41.9859 15.6177 43.5214 17.3786 45.0404 19.3041C43.5544 19.2383 42.0355 19.1889 40.5 19.1889C38.948 19.1889 37.4126 19.2218 35.9101 19.3041C37.396 17.3786 38.9315 15.6177 40.4505 14.0378ZM28.2328 23.7311C27.4238 24.9983 26.6148 26.2985 25.8553 27.6315C25.0958 28.9481 24.3859 30.2647 23.7089 31.5812C22.8174 29.376 22.0579 27.1707 21.4305 25.0312C23.5934 24.5211 25.8718 24.0767 28.2328 23.7311ZM13.2909 44.3356C7.44619 41.8505 3.66531 38.592 3.66531 36.0082C3.66531 33.4244 7.44619 30.1494 13.2909 27.6809C14.7108 27.0719 16.2627 26.5289 17.8642 26.0187C18.8053 29.2443 20.0436 32.6016 21.5791 36.0411C20.0601 39.4642 18.8384 42.8051 17.9138 46.0142C16.2793 45.504 14.7273 44.9445 13.2909 44.3356ZM22.1735 67.853C19.928 66.5693 18.9539 61.6815 19.7134 55.3948C19.895 53.8479 20.1922 52.2186 20.5554 50.5564C23.7915 51.3464 27.3247 51.9553 31.0395 52.3503C33.2685 55.3948 35.5799 58.1597 37.9079 60.5789C32.5255 65.5654 27.4733 68.2973 24.0391 68.2973C23.2962 68.2809 22.6688 68.1328 22.1735 67.853ZM61.3361 55.3126C62.1121 61.5992 61.1545 66.487 58.9256 67.7871C58.4303 68.0834 57.7864 68.215 57.0269 68.215C53.6092 68.215 48.5406 65.4996 43.1582 60.546C45.4696 58.1268 47.7811 55.3784 49.977 52.3338C53.7083 51.9388 57.2415 51.3299 60.4776 50.5235C60.8573 52.1857 61.1545 53.782 61.3361 55.3126ZM67.6926 44.3356C66.2727 44.9445 64.7207 45.4876 63.1192 45.9978C62.1781 42.7721 60.9399 39.4149 59.4044 35.9753C60.9234 32.5522 62.1451 29.2114 63.0697 26.0022C64.7042 26.5124 66.2562 27.0719 67.7091 27.6809C73.5538 30.1659 77.3347 33.4244 77.3347 36.0082C77.3182 38.592 73.5373 41.867 67.6926 44.3356Z" fill="white"/>
<path d="M40.4835 43.5292C44.6506 43.5292 48.0287 40.1619 48.0287 36.0082C48.0287 31.8545 44.6506 28.4873 40.4835 28.4873C36.3164 28.4873 32.9382 31.8545 32.9382 36.0082C32.9382 40.1619 36.3164 43.5292 40.4835 43.5292Z" fill="white"/>
</svg>
