<svg width="862" height="862" viewBox="0 0 862 862" fill="none" xmlns="http://www.w3.org/2000/svg">
<g opacity="0.4">
<path d="M431.883 665.914H431.464C430.278 665.914 429.109 665.914 427.94 665.879L428.307 640.758C429.353 640.776 430.418 640.776 431.464 640.776H431.883V665.914ZM440.728 665.74L439.768 640.636C440.815 640.601 441.861 640.549 442.908 640.497L444.269 665.6C443.1 665.635 441.914 665.688 440.728 665.74ZM419.113 665.6C417.944 665.531 416.776 665.461 415.607 665.391L417.264 640.322C418.311 640.392 419.375 640.462 420.439 640.514L419.113 665.6ZM453.096 664.937L450.776 639.921C451.84 639.816 452.887 639.712 453.933 639.607L456.585 664.606C455.434 664.711 454.265 664.815 453.096 664.937ZM406.797 664.623C405.611 664.501 404.442 664.362 403.273 664.222L406.291 639.276C407.338 639.398 408.367 639.52 409.414 639.624L406.797 664.623ZM465.377 663.472L461.731 638.613C462.778 638.456 463.825 638.299 464.871 638.124L468.866 662.931C467.715 663.123 466.546 663.298 465.377 663.472ZM394.516 663.001C393.347 662.809 392.178 662.617 391.009 662.408L395.353 637.653C396.382 637.828 397.412 638.002 398.441 638.176L394.516 663.001ZM477.554 661.379L472.652 636.729C473.681 636.519 474.71 636.31 475.722 636.083L481.025 660.646C479.874 660.908 478.705 661.134 477.554 661.379ZM382.339 660.733C381.188 660.489 380.037 660.227 378.885 659.966L384.52 635.472C385.549 635.717 386.578 635.943 387.608 636.153L382.339 660.733ZM489.643 658.622L483.381 634.286C484.41 634.024 485.422 633.763 486.433 633.484L493.045 657.733C491.929 658.029 490.777 658.326 489.643 658.622ZM370.32 657.837C369.168 657.523 368.034 657.209 366.9 656.878L373.844 632.716C374.855 633.013 375.85 633.292 376.879 633.553L370.32 657.837ZM501.541 655.22L494.022 631.233C495.034 630.919 496.028 630.605 497.022 630.274L504.908 654.139C503.791 654.505 502.657 654.872 501.541 655.22ZM358.457 654.278C357.341 653.912 356.224 653.528 355.125 653.162L363.289 629.384C364.301 629.733 365.313 630.064 366.325 630.396L358.457 654.278ZM513.246 651.208L504.437 627.674C505.431 627.308 506.408 626.924 507.385 626.54L516.526 649.952C515.444 650.371 514.345 650.789 513.246 651.208ZM346.769 650.092C345.67 649.655 344.571 649.219 343.472 648.783L352.927 625.494C353.904 625.895 354.881 626.279 355.875 626.663L346.769 650.092ZM524.69 646.585L514.694 623.522C515.654 623.104 516.596 622.685 517.555 622.249L527.918 645.137C526.853 645.643 525.772 646.114 524.69 646.585ZM335.343 645.294C334.261 644.806 333.179 644.317 332.115 643.811L342.809 621.063C343.768 621.516 344.71 621.952 345.687 622.389L335.343 645.294ZM535.89 641.369L524.655 618.899C525.597 618.428 526.522 617.957 527.464 617.469L539.047 639.781C537.983 640.305 536.937 640.828 535.89 641.369ZM324.178 639.886C323.131 639.345 322.102 638.805 321.055 638.246L332.9 616.091C333.842 616.597 334.767 617.085 335.709 617.574L324.178 639.886ZM546.776 635.56L534.372 613.701C535.297 613.177 536.204 612.654 537.111 612.131L549.828 633.798C548.817 634.391 547.805 634.984 546.776 635.56ZM313.327 633.92C312.315 633.327 311.303 632.716 310.292 632.106L323.323 610.613C324.23 611.154 325.137 611.695 326.044 612.235L313.327 633.92ZM557.347 629.192L543.827 608.014C544.717 607.455 545.589 606.88 546.462 606.304L560.313 627.273C559.336 627.919 558.342 628.547 557.347 629.192ZM302.79 627.378C301.813 626.732 300.836 626.069 299.859 625.407L314.007 604.629C314.88 605.222 315.752 605.816 316.642 606.391L302.79 627.378ZM567.605 622.249L552.951 601.838C553.806 601.227 554.678 600.599 555.533 599.971L570.448 620.208C569.489 620.888 568.547 621.569 567.605 622.249ZM292.637 620.295C291.695 619.597 290.753 618.9 289.811 618.184L305.006 598.175C305.843 598.82 306.698 599.448 307.553 600.076L292.637 620.295ZM577.426 614.817L561.778 595.157C562.598 594.511 563.401 593.848 564.22 593.185L580.2 612.584C579.275 613.334 578.351 614.085 577.426 614.817ZM282.886 612.689C281.978 611.939 281.071 611.189 280.164 610.421L296.423 591.249C297.225 591.929 298.028 592.592 298.848 593.272L282.886 612.689ZM586.899 606.862L570.204 588.074C570.989 587.376 571.774 586.678 572.559 585.963L589.516 604.507C588.661 605.292 587.789 606.077 586.899 606.862ZM273.518 604.577C272.645 603.792 271.791 602.989 270.936 602.187L288.136 583.869C288.904 584.602 289.689 585.317 290.474 586.033L273.518 604.577ZM595.918 598.419L578.299 580.503C579.049 579.77 579.781 579.02 580.514 578.287L598.43 595.907C597.61 596.761 596.773 597.599 595.918 598.419ZM264.621 596.029C263.783 595.191 262.963 594.337 262.143 593.482L280.321 576.124C281.036 576.874 281.769 577.624 282.502 578.374L264.621 596.029ZM604.501 589.504L585.957 572.548C586.672 571.78 587.37 570.995 588.068 570.21L606.873 586.887C606.088 587.76 605.303 588.632 604.501 589.504ZM256.177 586.992C255.392 586.12 254.625 585.23 253.857 584.34L272.89 567.925C273.57 568.727 274.268 569.512 274.966 570.297L256.177 586.992ZM612.613 580.171L593.214 564.191C593.877 563.371 594.54 562.569 595.203 561.749L614.846 577.415C614.096 578.339 613.363 579.264 612.613 580.171ZM248.205 577.537C247.472 576.612 246.74 575.688 246.007 574.746L265.894 559.394C266.54 560.214 267.185 561.034 267.831 561.854L248.205 577.537ZM620.219 570.402L600 555.486C600.628 554.631 601.239 553.776 601.867 552.922L622.312 567.541C621.614 568.5 620.917 569.442 620.219 570.402ZM240.756 567.68C240.076 566.721 239.395 565.761 238.732 564.802L259.37 550.462C259.98 551.334 260.573 552.189 261.184 553.044L240.756 567.68ZM627.301 560.266L606.333 546.415C606.908 545.542 607.484 544.67 608.042 543.78L629.238 557.283C628.592 558.277 627.947 559.272 627.301 560.266ZM233.83 557.44C233.202 556.446 232.574 555.451 231.964 554.457L253.334 541.233C253.892 542.123 254.45 543.013 255.008 543.902L233.83 557.44ZM633.861 549.729L612.177 537.029C612.718 536.122 613.241 535.197 613.764 534.273L635.623 546.676C635.03 547.688 634.454 548.717 633.861 549.729ZM227.463 546.886C226.887 545.856 226.312 544.827 225.736 543.798L247.769 531.708C248.275 532.633 248.781 533.54 249.304 534.447L227.463 546.886ZM639.827 538.878L617.515 527.312C618.003 526.37 618.474 525.445 618.945 524.503L641.432 535.721C640.909 536.785 640.368 537.831 639.827 538.878ZM221.636 536C221.113 534.953 220.59 533.889 220.084 532.825L242.727 521.921C243.181 522.863 243.634 523.806 244.105 524.73L221.636 536ZM645.235 527.713L622.33 517.386C622.766 516.426 623.202 515.449 623.621 514.49L646.683 524.486C646.212 525.567 645.723 526.632 645.235 527.713ZM216.42 524.8C215.949 523.718 215.496 522.637 215.042 521.555L238.226 511.873C238.628 512.832 239.046 513.809 239.465 514.769L216.42 524.8ZM650.05 516.287L626.621 507.163C627.005 506.186 627.389 505.191 627.755 504.197L651.306 512.972C650.887 514.089 650.468 515.188 650.05 516.287ZM211.797 513.373C211.379 512.274 210.977 511.158 210.576 510.041L234.249 501.615C234.598 502.61 234.964 503.586 235.331 504.563L211.797 513.373ZM654.237 504.581L630.354 496.748C630.686 495.736 631 494.724 631.331 493.712L655.318 501.197C654.969 502.348 654.62 503.464 654.237 504.581ZM207.768 501.65C207.419 500.534 207.07 499.417 206.738 498.301L230.812 491.078C231.126 492.09 231.423 493.119 231.754 494.131L207.768 501.65ZM657.795 492.753L633.547 486.159C633.826 485.147 634.088 484.135 634.349 483.123L658.702 489.316C658.406 490.45 658.109 491.602 657.795 492.753ZM204.366 489.752C204.069 488.618 203.79 487.467 203.511 486.316L227.951 480.454C228.196 481.483 228.457 482.495 228.719 483.507L204.366 489.752ZM660.709 480.698L636.129 475.43C636.355 474.401 636.565 473.371 636.774 472.342L661.424 477.244C661.197 478.396 660.953 479.547 660.709 480.698ZM201.609 477.698C201.383 476.546 201.156 475.378 200.947 474.226L225.666 469.656C225.858 470.685 226.05 471.732 226.259 472.761L201.609 477.698ZM662.976 468.556L638.17 464.562C638.327 463.532 638.484 462.503 638.641 461.456L663.517 465.033C663.343 466.219 663.168 467.388 662.976 468.556ZM199.499 465.486C199.324 464.317 199.167 463.166 199.01 461.997L223.922 458.717C224.061 459.764 224.201 460.811 224.358 461.857L199.499 465.486ZM664.616 456.275L639.618 453.623C639.722 452.577 639.827 451.547 639.932 450.501L664.965 452.751C664.843 453.92 664.738 455.106 664.616 456.275ZM198.033 453.222C197.929 452.036 197.824 450.867 197.737 449.681L222.788 447.762C222.857 448.808 222.962 449.855 223.049 450.884L198.033 453.222ZM665.593 443.924L640.49 442.633C640.542 441.569 640.595 440.522 640.629 439.458L665.733 440.417C665.698 441.586 665.646 442.755 665.593 443.924ZM197.231 440.871C197.178 439.702 197.144 438.533 197.109 437.347L222.229 436.719C222.247 437.766 222.282 438.83 222.334 439.877L197.231 440.871ZM640.786 431.573C640.786 430.421 640.786 429.427 640.769 428.415L665.89 428.031C665.907 429.183 665.925 430.351 665.907 431.503L640.786 431.573ZM222.177 428.816L197.056 428.52C197.074 427.333 197.091 426.165 197.126 424.996L222.247 425.659C222.212 426.705 222.194 427.77 222.177 428.816ZM640.49 420.53C640.438 419.466 640.368 418.419 640.298 417.355L665.366 415.697C665.436 416.866 665.506 418.035 665.576 419.204L640.49 420.53ZM222.613 417.791L197.527 416.168C197.597 415 197.684 413.813 197.789 412.645L222.84 414.633C222.753 415.68 222.683 416.727 222.613 417.791ZM639.635 409.504C639.53 408.458 639.408 407.411 639.286 406.364L664.232 403.381C664.372 404.55 664.512 405.719 664.634 406.905L639.635 409.504ZM223.608 406.783L198.644 403.835C198.783 402.666 198.923 401.497 199.08 400.328L223.991 403.643C223.869 404.707 223.747 405.736 223.608 406.783ZM638.205 398.549C638.048 397.502 637.873 396.473 637.681 395.443L662.436 391.135C662.645 392.286 662.837 393.455 663.011 394.624L638.205 398.549ZM225.195 395.862L200.423 391.588C200.615 390.419 200.824 389.268 201.051 388.117L225.753 392.739C225.561 393.786 225.369 394.815 225.195 395.862ZM636.181 387.715C635.954 386.686 635.727 385.639 635.501 384.61L659.993 378.993C660.255 380.144 660.517 381.278 660.761 382.429L636.181 387.715ZM227.358 385.029L202.848 379.464C203.11 378.312 203.389 377.143 203.668 375.992L228.073 381.976C227.829 382.988 227.585 384.017 227.358 385.029ZM633.582 376.969C633.303 375.957 633.023 374.928 632.727 373.916L656.888 367.025C657.202 368.159 657.516 369.276 657.83 370.41L633.582 376.969ZM230.097 374.335L205.918 367.479C206.232 366.345 206.564 365.211 206.913 364.077L230.987 371.299C230.673 372.311 230.376 373.323 230.097 374.335ZM630.424 366.397C630.093 365.403 629.761 364.391 629.412 363.397L653.172 355.197C653.556 356.314 653.922 357.43 654.306 358.547L630.424 366.397ZM233.394 363.78L209.617 355.633C210 354.517 210.384 353.4 210.785 352.284L234.441 360.78C234.092 361.774 233.743 362.769 233.394 363.78ZM626.708 356C626.325 355.023 625.941 354.046 625.54 353.069L648.829 343.631C649.265 344.713 649.701 345.812 650.12 346.893L626.708 356ZM237.267 353.4L213.96 343.997C214.397 342.898 214.85 341.817 215.304 340.735L238.471 350.487C238.069 351.447 237.668 352.424 237.267 353.4ZM622.452 345.847C622.016 344.887 621.58 343.945 621.143 342.986L643.909 332.327C644.415 333.391 644.903 334.455 645.374 335.537L622.452 345.847ZM241.681 343.247L218.897 332.623C219.403 331.542 219.909 330.477 220.433 329.396L243.024 340.404C242.588 341.346 242.134 342.288 241.681 343.247ZM617.672 335.92C617.183 334.978 616.695 334.054 616.207 333.129L638.379 321.284C638.937 322.313 639.478 323.36 640.019 324.407L617.672 335.92ZM246.635 333.356L224.445 321.545C225.003 320.499 225.561 319.47 226.137 318.44L248.135 330.582C247.629 331.489 247.123 332.414 246.635 333.356ZM612.351 326.256C611.828 325.349 611.287 324.459 610.746 323.552L632.256 310.538C632.866 311.549 633.46 312.561 634.07 313.573L612.351 326.256ZM252.095 323.744L230.568 310.764C231.179 309.752 231.789 308.758 232.417 307.746L253.735 321.04C253.177 321.929 252.636 322.836 252.095 323.744ZM606.559 316.888C605.984 316.015 605.391 315.126 604.815 314.271L625.609 300.158C626.272 301.135 626.918 302.111 627.563 303.088L606.559 316.888ZM258.044 314.428L237.249 300.332C237.912 299.355 238.575 298.396 239.238 297.436L259.858 311.794C259.248 312.666 258.637 313.538 258.044 314.428ZM600.244 307.816C599.616 306.979 598.988 306.124 598.36 305.287L618.387 290.109C619.102 291.051 619.8 291.993 620.498 292.935L600.244 307.816ZM264.481 305.426L244.454 290.249C245.17 289.307 245.885 288.382 246.6 287.457L266.417 302.914C265.772 303.751 265.127 304.589 264.481 305.426ZM593.493 299.111C592.83 298.291 592.15 297.489 591.47 296.686L610.676 280.479C611.427 281.369 612.177 282.276 612.927 283.183L593.493 299.111ZM271.389 296.791L252.165 280.602C252.933 279.694 253.7 278.805 254.468 277.915L273.43 294.418C272.75 295.186 272.07 295.988 271.389 296.791ZM586.271 290.737C585.556 289.952 584.858 289.185 584.125 288.417L602.46 271.233C603.262 272.088 604.065 272.961 604.867 273.833L586.271 290.737ZM278.734 288.522L260.382 271.356C261.184 270.501 262.004 269.646 262.824 268.791L280.914 286.254C280.182 286.986 279.449 287.754 278.734 288.522ZM578.613 282.765C577.862 282.032 577.112 281.299 576.362 280.567L593.755 262.424C594.61 263.244 595.447 264.063 596.284 264.901L578.613 282.765ZM286.497 280.654L269.087 262.528C269.924 261.708 270.779 260.906 271.651 260.103L288.799 278.473C288.014 279.206 287.247 279.921 286.497 280.654ZM570.588 275.211C569.803 274.513 569 273.815 568.198 273.118L584.631 254.102C585.521 254.87 586.393 255.637 587.283 256.422L570.588 275.211ZM294.661 273.205L278.21 254.207C279.1 253.439 280.007 252.672 280.897 251.904L297.051 271.164C296.248 271.844 295.446 272.524 294.661 273.205ZM562.11 268.058C561.29 267.395 560.47 266.75 559.632 266.105L575.054 246.269C575.978 247.002 576.92 247.717 577.828 248.467L562.11 268.058ZM303.191 266.192L287.753 246.357C288.677 245.624 289.619 244.909 290.579 244.193L305.686 264.273C304.849 264.918 304.011 265.564 303.191 266.192ZM553.317 261.394C552.463 260.784 551.59 260.173 550.718 259.563L565.075 238.942C566.035 239.605 566.994 240.286 567.954 240.983L553.317 261.394ZM312.071 259.65L297.696 239.03C298.656 238.349 299.633 237.686 300.61 237.041L314.67 257.87C313.798 258.464 312.943 259.057 312.071 259.65ZM544.159 255.166C543.269 254.591 542.379 254.032 541.49 253.474L554.748 232.121C555.742 232.749 556.754 233.377 557.748 234.005L544.159 255.166ZM321.299 253.579L308.024 232.243C309.018 231.615 310.03 231.005 311.059 230.394L323.986 251.956C323.061 252.497 322.172 253.038 321.299 253.579ZM534.704 249.444C533.796 248.921 532.872 248.415 531.947 247.909L544.037 225.876C545.083 226.452 546.113 227.027 547.142 227.603L534.704 249.444ZM330.807 248.014L318.665 225.998C319.694 225.44 320.724 224.864 321.77 224.323L333.563 246.514C332.639 247.002 331.714 247.508 330.807 248.014ZM524.934 244.228C523.992 243.757 523.05 243.286 522.108 242.833L533.029 220.189C534.093 220.712 535.157 221.218 536.221 221.759L524.934 244.228ZM340.593 242.955L329.638 220.328C330.685 219.822 331.749 219.316 332.813 218.828L343.437 241.594C342.495 242.048 341.536 242.484 340.593 242.955ZM514.921 239.535C513.962 239.117 512.985 238.698 512.008 238.297L521.707 215.112C522.806 215.566 523.888 216.037 524.969 216.508L514.921 239.535ZM350.624 238.419L340.89 215.252C341.972 214.798 343.053 214.345 344.135 213.908L353.538 237.215C352.561 237.616 351.584 238 350.624 238.419ZM504.663 235.366C503.686 235 502.692 234.633 501.698 234.284L510.141 210.611C511.258 211.012 512.374 211.414 513.491 211.832L504.663 235.366ZM360.865 234.424L352.369 210.768C353.468 210.367 354.584 209.983 355.701 209.599L363.83 233.377C362.853 233.709 361.859 234.058 360.865 234.424ZM494.196 231.772C493.185 231.458 492.173 231.144 491.161 230.848L498.348 206.773C499.482 207.105 500.616 207.454 501.733 207.82L494.196 231.772ZM371.366 230.97L364.127 206.895C365.261 206.564 366.377 206.232 367.511 205.901L374.384 230.08C373.39 230.359 372.378 230.656 371.366 230.97ZM483.572 228.737C482.543 228.475 481.531 228.213 480.502 227.969L486.399 203.546C487.532 203.825 488.684 204.104 489.818 204.401L483.572 228.737ZM382.025 228.074L376.094 203.651C377.245 203.371 378.379 203.092 379.531 202.848L385.096 227.359C384.066 227.585 383.037 227.83 382.025 228.074ZM472.791 226.26C471.762 226.05 470.733 225.858 469.704 225.666L474.274 200.947C475.443 201.156 476.594 201.383 477.763 201.627L472.791 226.26ZM392.806 225.754L388.183 201.051C389.335 200.842 390.504 200.633 391.672 200.423L395.911 225.195C394.865 225.37 393.836 225.562 392.806 225.754ZM461.941 224.376C460.894 224.219 459.847 224.079 458.801 223.939L462.08 199.028C463.249 199.185 464.4 199.342 465.569 199.516L461.941 224.376ZM403.709 223.992L400.395 199.08C401.564 198.923 402.75 198.783 403.919 198.644L406.832 223.608C405.785 223.73 404.756 223.852 403.709 223.992ZM450.985 223.067C449.939 222.962 448.874 222.875 447.828 222.805L449.782 197.754C450.95 197.841 452.119 197.946 453.288 198.051L450.985 223.067ZM414.7 222.84L412.711 197.789C413.88 197.702 415.066 197.615 416.235 197.527L417.857 222.614C416.793 222.683 415.746 222.753 414.7 222.84ZM439.943 222.334C438.896 222.3 437.832 222.265 436.785 222.23L437.413 197.109C438.599 197.144 439.768 197.178 440.937 197.231L439.943 222.334ZM425.725 222.247L425.062 197.126C426.231 197.091 427.4 197.074 428.568 197.056L428.9 222.177C427.836 222.195 426.772 222.212 425.725 222.247Z" fill="#29292E"/>
<path opacity="0.55" d="M431.602 545.778C368.641 545.778 317.426 494.563 317.426 431.602C317.426 368.641 368.641 317.426 431.602 317.426C494.563 317.426 545.778 368.641 545.778 431.602C545.778 494.563 494.543 545.778 431.602 545.778ZM431.602 319.3C369.665 319.3 319.28 369.684 319.28 431.621C319.28 493.558 369.665 543.943 431.602 543.943C493.539 543.943 543.923 493.558 543.923 431.621C543.904 369.684 493.52 319.3 431.602 319.3Z" fill="#202024"/>
<circle cx="431" cy="431" r="422.263" stroke="#202024" stroke-width="1.94144"/>
<path d="M566.062 202.249C566.062 196.559 569.055 193.173 573.179 193.173C577.304 193.173 580.32 196.559 580.32 202.249C580.32 207.939 577.304 211.325 573.179 211.325C569.055 211.325 566.062 207.939 566.062 202.249ZM578.435 202.249C578.435 197.476 576.29 194.866 573.179 194.866C570.069 194.866 567.924 197.5 567.924 202.249C567.924 206.999 570.069 209.632 573.179 209.632C576.29 209.655 578.435 207.022 578.435 202.249Z" fill="#3C3C42"/>
<path d="M582.96 202.249C582.96 196.559 585.953 193.173 590.078 193.173C594.202 193.173 597.219 196.559 597.219 202.249C597.219 207.939 594.202 211.325 590.078 211.325C585.953 211.325 582.96 207.939 582.96 202.249ZM595.357 202.249C595.357 197.476 593.212 194.866 590.101 194.866C586.99 194.866 584.846 197.5 584.846 202.249C584.846 206.999 586.99 209.632 590.101 209.632C593.212 209.655 595.357 207.022 595.357 202.249Z" fill="#3C3C42"/>
<path d="M604.76 193.338V211.161H602.922V194.961H598.703V193.338H604.76Z" fill="#3C3C42"/>
<path d="M609.026 202.249C609.026 196.559 612.019 193.173 616.143 193.173C620.267 193.173 623.284 196.559 623.284 202.249C623.284 207.939 620.267 211.325 616.143 211.325C612.019 211.325 609.026 207.939 609.026 202.249ZM621.422 202.249C621.422 197.476 619.278 194.866 616.167 194.866C613.056 194.866 610.911 197.5 610.911 202.249C610.911 206.999 613.056 209.632 616.167 209.632C619.278 209.655 621.422 207.022 621.422 202.249Z" fill="#3C3C42"/>
<path d="M630.849 193.338V211.161H629.011V194.961H624.792V193.338H630.849Z" fill="#3C3C42"/>
<path d="M548.457 227.572C548.457 221.882 551.45 218.496 555.575 218.496C559.699 218.496 562.716 221.882 562.716 227.572C562.716 233.262 559.699 236.647 555.575 236.647C551.45 236.647 548.457 233.238 548.457 227.572ZM560.83 227.572C560.83 222.799 558.686 220.189 555.575 220.189C552.464 220.189 550.319 222.822 550.319 227.572C550.319 232.345 552.464 234.955 555.575 234.955C558.686 234.955 560.83 232.321 560.83 227.572Z" fill="#3C3C42"/>
<path d="M565.355 227.572C565.355 221.882 568.348 218.496 572.472 218.496C576.597 218.496 579.613 221.882 579.613 227.572C579.613 233.262 576.597 236.647 572.472 236.647C568.348 236.647 565.355 233.238 565.355 227.572ZM577.751 227.572C577.751 222.799 575.607 220.189 572.496 220.189C569.385 220.189 567.24 222.822 567.24 227.572C567.24 232.345 569.385 234.955 572.496 234.955C575.607 234.955 577.751 232.321 577.751 227.572Z" fill="#3C3C42"/>
<path d="M587.179 218.661V236.483H585.341V220.283H581.122V218.661H587.179Z" fill="#3C3C42"/>
<path d="M591.444 227.572C591.444 221.882 594.437 218.496 598.562 218.496C602.686 218.496 605.703 221.882 605.703 227.572C605.703 233.262 602.686 236.647 598.562 236.647C594.437 236.647 591.444 233.238 591.444 227.572ZM603.817 227.572C603.817 222.799 601.673 220.189 598.562 220.189C595.451 220.189 593.306 222.822 593.306 227.572C593.306 232.345 595.451 234.955 598.562 234.955C601.673 234.955 603.817 232.321 603.817 227.572Z" fill="#3C3C42"/>
<path d="M613.245 218.661V236.483H611.406V220.283H607.188V218.661H613.245Z" fill="#3C3C42"/>
<path d="M622.459 218.661V236.483H620.621V220.283H616.402V218.661H622.459Z" fill="#3C3C42"/>
<path d="M626.725 227.572C626.725 221.882 629.718 218.496 633.842 218.496C637.967 218.496 640.983 221.882 640.983 227.572C640.983 233.262 637.967 236.647 633.842 236.647C629.718 236.647 626.725 233.238 626.725 227.572ZM639.098 227.572C639.098 222.799 636.953 220.189 633.842 220.189C630.732 220.189 628.587 222.822 628.587 227.572C628.587 232.345 630.732 234.955 633.842 234.955C636.953 234.955 639.098 232.321 639.098 227.572Z" fill="#3C3C42"/>
<path d="M648.525 218.661V236.483H646.687V220.283H642.468V218.661H648.525Z" fill="#3C3C42"/>
<path d="M566.062 252.048C566.062 246.358 569.055 242.972 573.179 242.972C577.304 242.972 580.32 246.358 580.32 252.048C580.32 257.738 577.304 261.124 573.179 261.124C569.055 261.124 566.062 257.714 566.062 252.048ZM578.435 252.048C578.435 247.275 576.29 244.665 573.179 244.665C570.069 244.665 567.924 247.298 567.924 252.048C567.924 256.797 570.069 259.431 573.179 259.431C576.29 259.431 578.435 256.797 578.435 252.048Z" fill="#3C3C42"/>
<path d="M587.862 243.137V260.959H586.024V244.76H581.805V243.137H587.862Z" fill="#3C3C42"/>
<path d="M597.077 243.137V260.959H595.239V244.76H591.02V243.137H597.077Z" fill="#3C3C42"/>
<path d="M606.292 243.137V260.959H604.453V244.76H600.235V243.137H606.292Z" fill="#3C3C42"/>
<path d="M610.581 252.048C610.581 246.358 613.574 242.972 617.699 242.972C621.823 242.972 624.84 246.358 624.84 252.048C624.84 257.738 621.823 261.124 617.699 261.124C613.574 261.124 610.581 257.714 610.581 252.048ZM622.954 252.048C622.954 247.275 620.81 244.665 617.699 244.665C614.588 244.665 612.443 247.298 612.443 252.048C612.443 256.797 614.588 259.431 617.699 259.431C620.81 259.431 622.954 256.797 622.954 252.048Z" fill="#3C3C42"/>
<path d="M632.381 243.137V260.959H630.543V244.76H626.324V243.137H632.381Z" fill="#3C3C42"/>
<path d="M538.975 662.767C538.975 659.876 540.497 658.149 542.606 658.149C544.716 658.149 546.246 659.876 546.246 662.767C546.246 665.659 544.708 667.386 542.606 667.386C540.497 667.386 538.975 665.659 538.975 662.767ZM545.288 662.767C545.288 660.342 544.192 659 542.606 659C541.02 659 539.925 660.334 539.925 662.767C539.925 665.193 541.02 666.535 542.606 666.535C544.192 666.535 545.288 665.193 545.288 662.767Z" fill="#3C3C42"/>
<path d="M547.582 662.767C547.582 659.876 549.104 658.149 551.214 658.149C553.323 658.149 554.853 659.876 554.853 662.767C554.853 665.659 553.315 667.386 551.214 667.386C549.104 667.386 547.582 665.659 547.582 662.767ZM553.895 662.767C553.895 660.342 552.8 659 551.214 659C549.627 659 548.532 660.334 548.532 662.767C548.532 665.193 549.627 666.535 551.214 666.535C552.8 666.535 553.895 665.193 553.895 662.767Z" fill="#3C3C42"/>
<path d="M558.694 658.221V667.314H557.76V659.057H555.61V658.229H558.694V658.221Z" fill="#3C3C42"/>
<path d="M560.859 662.767C560.859 659.876 562.381 658.149 564.491 658.149C566.6 658.149 568.13 659.876 568.13 662.767C568.13 665.659 566.592 667.386 564.491 667.386C562.381 667.386 560.859 665.659 560.859 662.767ZM567.172 662.767C567.172 660.342 566.077 659 564.491 659C562.904 659 561.809 660.334 561.809 662.767C561.809 665.193 562.904 666.535 564.491 666.535C566.077 666.535 567.172 665.193 567.172 662.767Z" fill="#3C3C42"/>
<path d="M571.971 658.221V667.314H571.037V659.057H568.887V658.229H571.971V658.221Z" fill="#3C3C42"/>
<path d="M530.014 675.66C530.014 672.768 531.535 671.041 533.645 671.041C535.754 671.041 537.284 672.768 537.284 675.66C537.284 678.552 535.746 680.279 533.645 680.279C531.535 680.279 530.014 678.552 530.014 675.66ZM536.326 675.66C536.326 673.234 535.231 671.893 533.645 671.893C532.059 671.893 530.964 673.226 530.964 675.66C530.964 678.086 532.059 679.427 533.645 679.427C535.231 679.419 536.326 678.086 536.326 675.66Z" fill="#3C3C42"/>
<path d="M538.621 675.66C538.621 672.768 540.142 671.041 542.252 671.041C544.361 671.041 545.891 672.768 545.891 675.66C545.891 678.552 544.353 680.279 542.252 680.279C540.142 680.279 538.621 678.552 538.621 675.66ZM544.933 675.66C544.933 673.234 543.838 671.893 542.252 671.893C540.666 671.893 539.571 673.226 539.571 675.66C539.571 678.086 540.666 679.427 542.252 679.427C543.838 679.427 544.933 678.086 544.933 675.66Z" fill="#3C3C42"/>
<path d="M549.732 671.114V680.198H548.798V671.941H546.648V671.114H549.732V671.114Z" fill="#3C3C42"/>
<path d="M551.898 675.66C551.898 672.768 553.42 671.041 555.529 671.041C557.639 671.041 559.168 672.768 559.168 675.66C559.168 678.552 557.631 680.279 555.529 680.279C553.42 680.279 551.898 678.552 551.898 675.66ZM558.21 675.66C558.21 673.234 557.115 671.893 555.529 671.893C553.943 671.893 552.848 673.226 552.848 675.66C552.848 678.086 553.943 679.427 555.529 679.427C557.115 679.419 558.21 678.086 558.21 675.66Z" fill="#3C3C42"/>
<path d="M563.009 671.114V680.198H562.075V671.941H559.925V671.114H563.009V671.114Z" fill="#3C3C42"/>
<path d="M567.703 671.114V680.198H566.769V671.941H564.619V671.114H567.703V671.114Z" fill="#3C3C42"/>
<path d="M569.869 675.66C569.869 672.768 571.391 671.041 573.5 671.041C575.61 671.041 577.14 672.768 577.14 675.66C577.14 678.552 575.602 680.279 573.5 680.279C571.391 680.279 569.869 678.552 569.869 675.66ZM576.182 675.66C576.182 673.234 575.086 671.893 573.5 671.893C571.914 671.893 570.819 673.226 570.819 675.66C570.819 678.086 571.914 679.427 573.5 679.427C575.086 679.419 576.182 678.086 576.182 675.66Z" fill="#3C3C42"/>
<path d="M580.98 671.114V680.198H580.046V671.941H577.896V671.114H580.98V671.114Z" fill="#3C3C42"/>
<path d="M538.975 688.119C538.975 685.227 540.497 683.5 542.606 683.5C544.716 683.5 546.246 685.227 546.246 688.119C546.246 691.01 544.708 692.737 542.606 692.737C540.497 692.745 538.975 691.018 538.975 688.119ZM545.288 688.119C545.288 685.693 544.192 684.351 542.606 684.351C541.02 684.351 539.925 685.685 539.925 688.119C539.925 690.544 541.02 691.886 542.606 691.886C544.192 691.886 545.288 690.544 545.288 688.119Z" fill="#3C3C42"/>
<path d="M550.086 683.58V692.665H549.152V684.408H547.002V683.58H550.086Z" fill="#3C3C42"/>
<path d="M554.78 683.58V692.665H553.846V684.408H551.696V683.58H554.78Z" fill="#3C3C42"/>
<path d="M559.474 683.58V692.665H558.54V684.408H556.391V683.58H559.474Z" fill="#3C3C42"/>
<path d="M561.64 688.119C561.64 685.227 563.162 683.5 565.272 683.5C567.381 683.5 568.911 685.227 568.911 688.119C568.911 691.01 567.373 692.737 565.272 692.737C563.17 692.745 561.64 691.018 561.64 688.119ZM567.953 688.119C567.953 685.693 566.858 684.351 565.272 684.351C563.685 684.351 562.59 685.685 562.59 688.119C562.59 690.544 563.685 691.886 565.272 691.886C566.866 691.886 567.953 690.544 567.953 688.119Z" fill="#3C3C42"/>
<path d="M572.752 683.58V692.665H571.818V684.408H569.668V683.58H572.752Z" fill="#3C3C42"/>
<path d="M154.336 258.416C154.336 254.034 156.642 251.417 159.839 251.417C163.036 251.417 165.354 254.034 165.354 258.416C165.354 262.799 163.024 265.416 159.839 265.416C156.642 265.416 154.336 262.799 154.336 258.416ZM163.902 258.416C163.902 254.74 162.243 252.707 159.839 252.707C157.435 252.707 155.775 254.728 155.775 258.416C155.775 262.093 157.435 264.126 159.839 264.126C162.243 264.126 163.902 262.093 163.902 258.416Z" fill="#3C3C42"/>
<path d="M167.38 258.416C167.38 254.034 169.686 251.417 172.883 251.417C176.08 251.417 178.398 254.034 178.398 258.416C178.398 262.799 176.068 265.416 172.883 265.416C169.686 265.416 167.38 262.799 167.38 258.416ZM176.946 258.416C176.946 254.74 175.287 252.707 172.883 252.707C170.479 252.707 168.819 254.728 168.819 258.416C168.819 262.093 170.479 264.126 172.883 264.126C175.287 264.126 176.946 262.093 176.946 258.416Z" fill="#3C3C42"/>
<path d="M184.219 251.526V265.307H182.803V252.792H179.545V251.539H184.219V251.526Z" fill="#3C3C42"/>
<path d="M187.501 258.416C187.501 254.034 189.807 251.417 193.004 251.417C196.201 251.417 198.52 254.034 198.52 258.416C198.52 262.799 196.189 265.416 193.004 265.416C189.807 265.416 187.501 262.799 187.501 258.416ZM197.068 258.416C197.068 254.74 195.408 252.707 193.004 252.707C190.6 252.707 188.941 254.728 188.941 258.416C188.941 262.093 190.6 264.126 193.004 264.126C195.408 264.126 197.068 262.093 197.068 258.416Z" fill="#3C3C42"/>
<path d="M204.34 251.526V265.307H202.925V252.792H199.667V251.539H204.34V251.526Z" fill="#3C3C42"/>
<path d="M140.755 277.955C140.755 273.572 143.061 270.955 146.258 270.955C149.455 270.955 151.773 273.572 151.773 277.955C151.773 282.337 149.442 284.955 146.258 284.955C143.061 284.955 140.755 282.337 140.755 277.955ZM150.321 277.955C150.321 274.278 148.661 272.245 146.258 272.245C143.854 272.245 142.194 274.266 142.194 277.955C142.194 281.631 143.854 283.664 146.258 283.664C148.661 283.652 150.321 281.631 150.321 277.955Z" fill="#3C3C42"/>
<path d="M153.799 277.955C153.799 273.572 156.105 270.955 159.302 270.955C162.499 270.955 164.817 273.572 164.817 277.955C164.817 282.337 162.487 284.955 159.302 284.955C156.105 284.955 153.799 282.337 153.799 277.955ZM163.365 277.955C163.365 274.278 161.706 272.245 159.302 272.245C156.898 272.245 155.239 274.266 155.239 277.955C155.239 281.631 156.898 283.664 159.302 283.664C161.706 283.664 163.365 281.631 163.365 277.955Z" fill="#3C3C42"/>
<path d="M170.637 271.065V284.833H169.222V272.319H165.964V271.065H170.637V271.065Z" fill="#3C3C42"/>
<path d="M173.92 277.955C173.92 273.572 176.226 270.955 179.423 270.955C182.62 270.955 184.939 273.572 184.939 277.955C184.939 282.337 182.608 284.955 179.423 284.955C176.226 284.955 173.92 282.337 173.92 277.955ZM183.486 277.955C183.486 274.278 181.827 272.245 179.423 272.245C177.019 272.245 175.36 274.266 175.36 277.955C175.36 281.631 177.019 283.664 179.423 283.664C181.827 283.652 183.486 281.631 183.486 277.955Z" fill="#3C3C42"/>
<path d="M190.759 271.065V284.833H189.343V272.319H186.086V271.065H190.759V271.065Z" fill="#3C3C42"/>
<path d="M197.873 271.065V284.833H196.457V272.319H193.199V271.065H197.873V271.065Z" fill="#3C3C42"/>
<path d="M201.155 277.955C201.155 273.572 203.461 270.955 206.658 270.955C209.855 270.955 212.174 273.572 212.174 277.955C212.174 282.337 209.843 284.955 206.658 284.955C203.461 284.955 201.155 282.337 201.155 277.955ZM210.722 277.955C210.722 274.278 209.062 272.245 206.658 272.245C204.254 272.245 202.595 274.266 202.595 277.955C202.595 281.631 204.254 283.664 206.658 283.664C209.062 283.652 210.722 281.631 210.722 277.955Z" fill="#3C3C42"/>
<path d="M217.994 271.065V284.833H216.579V272.319H213.321V271.065H217.994V271.065Z" fill="#3C3C42"/>
<path d="M154.336 296.836C154.336 292.453 156.642 289.836 159.839 289.836C163.036 289.836 165.354 292.453 165.354 296.836C165.354 301.218 163.024 303.836 159.839 303.836C156.642 303.848 154.336 301.23 154.336 296.836ZM163.902 296.836C163.902 293.159 162.243 291.126 159.839 291.126C157.435 291.126 155.775 293.147 155.775 296.836C155.775 300.512 157.435 302.545 159.839 302.545C162.243 302.545 163.902 300.512 163.902 296.836Z" fill="#3C3C42"/>
<path d="M171.175 289.958V303.726H169.759V291.212H166.501V289.958H171.175Z" fill="#3C3C42"/>
<path d="M178.288 289.958V303.726H176.873V291.212H173.615V289.958H178.288Z" fill="#3C3C42"/>
<path d="M185.402 289.958V303.726H183.987V291.212H180.729V289.958H185.402Z" fill="#3C3C42"/>
<path d="M188.685 296.836C188.685 292.453 190.991 289.836 194.188 289.836C197.385 289.836 199.703 292.453 199.703 296.836C199.703 301.218 197.373 303.836 194.188 303.836C191.003 303.848 188.685 301.23 188.685 296.836ZM198.251 296.836C198.251 293.159 196.592 291.127 194.188 291.127C191.784 291.127 190.125 293.147 190.125 296.836C190.125 300.512 191.784 302.545 194.188 302.545C196.604 302.545 198.251 300.512 198.251 296.836Z" fill="#3C3C42"/>
<path d="M205.524 289.958V303.726H204.108V291.212H200.85V289.958H205.524Z" fill="#3C3C42"/>
<path d="M240.799 192.203H239.336V187.099H233.769V192.203H232.313V181.161H233.769V185.908H239.336V181.161H240.799V192.203Z" fill="#323238"/>
<path d="M250.787 182.359H247.238V192.203H245.79V182.359H242.248V181.161H250.787V182.359Z" fill="#323238"/>
<path d="M254.306 181.161L257.916 190.17L261.526 181.161H263.414V192.203H261.958V187.903L262.095 183.261L258.47 192.203H257.355L253.737 183.284L253.881 187.903V192.203H252.425V181.161H254.306Z" fill="#323238"/>
<path d="M267.449 191.012H272.682V192.203H265.985V181.161H267.449V191.012Z" fill="#323238"/>
<path d="M572.422 493.505C572.285 494.673 571.853 495.576 571.125 496.213C570.402 496.845 569.439 497.161 568.236 497.161C566.931 497.161 565.885 496.693 565.096 495.758C564.312 494.822 563.92 493.571 563.92 492.004V490.942C563.92 489.916 564.102 489.013 564.467 488.235C564.836 487.456 565.356 486.859 566.029 486.445C566.701 486.025 567.48 485.815 568.365 485.815C569.538 485.815 570.478 486.144 571.186 486.801C571.894 487.453 572.306 488.358 572.422 489.516H570.958C570.832 488.637 570.556 488 570.132 487.605C569.712 487.211 569.123 487.014 568.365 487.014C567.434 487.014 566.704 487.357 566.173 488.045C565.647 488.733 565.384 489.711 565.384 490.98V492.049C565.384 493.247 565.634 494.2 566.135 494.908C566.635 495.616 567.336 495.97 568.236 495.97C569.045 495.97 569.664 495.788 570.094 495.424C570.528 495.055 570.817 494.415 570.958 493.505H572.422Z" fill="#323238"/>
<path d="M577.67 492.087C576.421 491.728 575.511 491.288 574.94 490.768C574.373 490.242 574.09 489.595 574.09 488.826C574.09 487.957 574.437 487.239 575.129 486.672C575.827 486.101 576.732 485.815 577.844 485.815C578.603 485.815 579.278 485.962 579.869 486.255C580.466 486.548 580.926 486.953 581.249 487.469C581.578 487.984 581.742 488.548 581.742 489.16H580.279C580.279 488.492 580.066 487.969 579.642 487.59C579.217 487.206 578.618 487.014 577.844 487.014C577.126 487.014 576.565 487.173 576.161 487.491C575.761 487.805 575.562 488.242 575.562 488.803C575.562 489.253 575.751 489.635 576.13 489.949C576.515 490.257 577.164 490.54 578.079 490.798C579 491.056 579.717 491.341 580.233 491.655C580.754 491.963 581.138 492.325 581.386 492.739C581.639 493.154 581.765 493.642 581.765 494.203C581.765 495.098 581.416 495.816 580.719 496.357C580.021 496.893 579.088 497.161 577.92 497.161C577.162 497.161 576.454 497.017 575.797 496.728C575.139 496.435 574.631 496.036 574.272 495.53C573.918 495.025 573.741 494.451 573.741 493.809H575.205C575.205 494.476 575.45 495.004 575.941 495.394C576.436 495.778 577.096 495.97 577.92 495.97C578.689 495.97 579.278 495.813 579.687 495.5C580.097 495.186 580.301 494.759 580.301 494.218C580.301 493.677 580.112 493.26 579.733 492.967C579.353 492.669 578.666 492.375 577.67 492.087Z" fill="#323238"/>
<path d="M586.892 492.087C585.643 491.728 584.733 491.288 584.162 490.768C583.595 490.242 583.312 489.595 583.312 488.826C583.312 487.957 583.658 487.239 584.351 486.672C585.049 486.101 585.954 485.815 587.066 485.815C587.824 485.815 588.499 485.962 589.091 486.255C589.688 486.548 590.148 486.953 590.471 487.469C590.8 487.984 590.964 488.548 590.964 489.16H589.5C589.5 488.492 589.288 487.969 588.863 487.59C588.439 487.206 587.84 487.014 587.066 487.014C586.348 487.014 585.787 487.173 585.383 487.491C584.983 487.805 584.783 488.242 584.783 488.803C584.783 489.253 584.973 489.635 585.352 489.949C585.736 490.257 586.386 490.54 587.301 490.798C588.221 491.056 588.939 491.341 589.455 491.655C589.976 491.963 590.36 492.325 590.608 492.739C590.861 493.154 590.987 493.642 590.987 494.203C590.987 495.098 590.638 495.816 589.94 496.357C589.243 496.893 588.31 497.161 587.142 497.161C586.384 497.161 585.676 497.017 585.018 496.728C584.361 496.435 583.853 496.036 583.494 495.53C583.14 495.025 582.963 494.451 582.963 493.809H584.427C584.427 494.476 584.672 495.004 585.163 495.394C585.658 495.778 586.318 495.97 587.142 495.97C587.91 495.97 588.499 495.813 588.909 495.5C589.318 495.186 589.523 494.759 589.523 494.218C589.523 493.677 589.334 493.26 588.954 492.967C588.575 492.669 587.888 492.375 586.892 492.087Z" fill="#323238"/>
<path d="M198.11 651.96H199.574V659.779C199.574 660.836 199.256 661.662 198.619 662.259C197.987 662.856 197.142 663.154 196.086 663.154C194.988 663.154 194.134 662.873 193.522 662.312C192.911 661.751 192.605 660.965 192.605 659.954H194.061C194.061 660.586 194.233 661.078 194.576 661.432C194.925 661.786 195.428 661.963 196.086 661.963C196.687 661.963 197.173 661.774 197.542 661.394C197.916 661.015 198.105 660.484 198.11 659.802V651.96Z" fill="#323238"/>
<path d="M206.9 663.002C206.819 662.84 206.753 662.552 206.703 662.138C206.051 662.815 205.272 663.154 204.367 663.154C203.558 663.154 202.893 662.926 202.373 662.471C201.857 662.011 201.599 661.43 201.599 660.727C201.599 659.873 201.923 659.21 202.57 658.74C203.222 658.265 204.137 658.027 205.315 658.027H206.68V657.383C206.68 656.892 206.533 656.503 206.24 656.215C205.947 655.922 205.515 655.775 204.943 655.775C204.443 655.775 204.023 655.901 203.685 656.154C203.346 656.407 203.176 656.713 203.176 657.072H201.766C201.766 656.662 201.91 656.268 202.198 655.889C202.491 655.504 202.886 655.201 203.381 654.979C203.882 654.756 204.43 654.645 205.027 654.645C205.972 654.645 206.713 654.883 207.249 655.358C207.785 655.828 208.063 656.478 208.083 657.307V661.084C208.083 661.837 208.179 662.436 208.371 662.881V663.002H206.9ZM204.572 661.933C205.012 661.933 205.429 661.819 205.823 661.592C206.217 661.364 206.503 661.068 206.68 660.704V659.021H205.58C203.861 659.021 203.002 659.524 203.002 660.53C203.002 660.97 203.149 661.314 203.442 661.561C203.735 661.809 204.112 661.933 204.572 661.933Z" fill="#323238"/>
<path d="M212.868 661.099L214.901 654.797H216.334L213.392 663.002H212.322L209.35 654.797H210.783L212.868 661.099Z" fill="#323238"/>
<path d="M222.629 663.002C222.548 662.84 222.482 662.552 222.432 662.138C221.779 662.815 221.001 663.154 220.096 663.154C219.287 663.154 218.622 662.926 218.101 662.471C217.586 662.011 217.328 661.43 217.328 660.727C217.328 659.873 217.651 659.21 218.298 658.74C218.951 658.265 219.866 658.027 221.044 658.027H222.409V657.383C222.409 656.892 222.262 656.503 221.969 656.215C221.676 655.922 221.243 655.775 220.672 655.775C220.172 655.775 219.752 655.901 219.413 656.154C219.074 656.407 218.905 656.713 218.905 657.072H217.495C217.495 656.662 217.639 656.268 217.927 655.889C218.22 655.504 218.614 655.201 219.11 654.979C219.61 654.756 220.159 654.645 220.756 654.645C221.701 654.645 222.442 654.883 222.978 655.358C223.514 655.828 223.792 656.478 223.812 657.307V661.084C223.812 661.837 223.908 662.436 224.1 662.881V663.002H222.629ZM220.301 661.933C220.74 661.933 221.157 661.819 221.552 661.592C221.946 661.364 222.232 661.068 222.409 660.704V659.021H221.309C219.59 659.021 218.731 659.524 218.731 660.53C218.731 660.97 218.877 661.314 219.171 661.561C219.464 661.809 219.84 661.933 220.301 661.933Z" fill="#323238"/>
<path d="M229.484 658.08C228.236 657.721 227.326 657.282 226.754 656.761C226.188 656.235 225.905 655.588 225.905 654.819C225.905 653.95 226.251 653.232 226.944 652.666C227.642 652.094 228.547 651.809 229.659 651.809C230.417 651.809 231.092 651.955 231.684 652.248C232.28 652.542 232.74 652.946 233.064 653.462C233.393 653.978 233.557 654.541 233.557 655.153H232.093C232.093 654.486 231.881 653.962 231.456 653.583C231.032 653.199 230.432 653.007 229.659 653.007C228.941 653.007 228.38 653.166 227.975 653.485C227.576 653.798 227.376 654.235 227.376 654.797C227.376 655.247 227.566 655.628 227.945 655.942C228.329 656.25 228.979 656.533 229.894 656.791C230.814 657.049 231.532 657.335 232.048 657.648C232.569 657.957 232.953 658.318 233.2 658.733C233.453 659.147 233.58 659.635 233.58 660.196C233.58 661.091 233.231 661.809 232.533 662.35C231.835 662.886 230.903 663.154 229.735 663.154C228.976 663.154 228.269 663.01 227.611 662.722C226.954 662.428 226.446 662.029 226.087 661.523C225.733 661.018 225.556 660.444 225.556 659.802H227.02C227.02 660.469 227.265 660.998 227.755 661.387C228.251 661.771 228.911 661.963 229.735 661.963C230.503 661.963 231.092 661.807 231.502 661.493C231.911 661.18 232.116 660.752 232.116 660.211C232.116 659.67 231.926 659.253 231.547 658.96C231.168 658.662 230.48 658.369 229.484 658.08Z" fill="#323238"/>
<path d="M238.524 662.009C239.025 662.009 239.462 661.857 239.836 661.554C240.21 661.25 240.418 660.871 240.458 660.416H241.785C241.76 660.886 241.598 661.334 241.3 661.759C241.002 662.183 240.602 662.522 240.102 662.775C239.606 663.028 239.08 663.154 238.524 663.154C237.407 663.154 236.517 662.782 235.855 662.039C235.198 661.291 234.869 660.27 234.869 658.975V658.74C234.869 657.941 235.016 657.231 235.309 656.609C235.602 655.987 236.022 655.504 236.568 655.161C237.119 654.817 237.768 654.645 238.517 654.645C239.437 654.645 240.2 654.92 240.807 655.472C241.419 656.023 241.745 656.738 241.785 657.618H240.458C240.418 657.087 240.215 656.652 239.851 656.313C239.492 655.97 239.048 655.798 238.517 655.798C237.804 655.798 237.25 656.056 236.856 656.571C236.467 657.082 236.272 657.823 236.272 658.793V659.059C236.272 660.004 236.467 660.732 236.856 661.243C237.245 661.753 237.801 662.009 238.524 662.009Z" fill="#323238"/>
<path d="M247.329 656.056C247.117 656.02 246.887 656.002 246.639 656.002C245.719 656.002 245.094 656.394 244.766 657.178V663.002H243.363V654.797H244.728L244.751 655.745C245.211 655.011 245.863 654.645 246.707 654.645C246.98 654.645 247.187 654.68 247.329 654.751V656.056Z" fill="#323238"/>
<path d="M250.15 663.002H248.747V654.797H250.15V663.002ZM248.633 652.62C248.633 652.393 248.702 652.2 248.838 652.044C248.98 651.887 249.187 651.809 249.46 651.809C249.733 651.809 249.94 651.887 250.082 652.044C250.223 652.2 250.294 652.393 250.294 652.62C250.294 652.848 250.223 653.037 250.082 653.189C249.94 653.341 249.733 653.416 249.46 653.416C249.187 653.416 248.98 653.341 248.838 653.189C248.702 653.037 248.633 652.848 248.633 652.62Z" fill="#323238"/>
<path d="M259.334 658.99C259.334 660.239 259.048 661.245 258.477 662.009C257.906 662.772 257.132 663.154 256.157 663.154C255.161 663.154 254.377 662.838 253.806 662.206V666.157H252.403V654.797H253.684L253.752 655.707C254.324 654.999 255.118 654.645 256.134 654.645C257.12 654.645 257.898 655.017 258.47 655.76C259.046 656.503 259.334 657.537 259.334 658.862V658.99ZM257.931 658.831C257.931 657.906 257.734 657.175 257.34 656.639C256.945 656.104 256.404 655.836 255.717 655.836C254.867 655.836 254.23 656.212 253.806 656.966V660.886C254.225 661.635 254.867 662.009 255.732 662.009C256.404 662.009 256.938 661.743 257.332 661.212C257.731 660.677 257.931 659.883 257.931 658.831Z" fill="#323238"/>
<path d="M263.027 652.81V654.797H264.559V655.881H263.027V660.97C263.027 661.298 263.096 661.546 263.232 661.713C263.369 661.875 263.601 661.956 263.93 661.956C264.092 661.956 264.314 661.925 264.597 661.865V663.002C264.228 663.103 263.869 663.154 263.52 663.154C262.893 663.154 262.421 662.964 262.102 662.585C261.784 662.206 261.624 661.668 261.624 660.97V655.881H260.13V654.797H261.624V652.81H263.027Z" fill="#323238"/>
</g>
</svg>
