<svg width="914" height="422" viewBox="0 0 914 422" fill="none" xmlns="http://www.w3.org/2000/svg">
<mask id="mask0" mask-type="alpha" maskUnits="userSpaceOnUse" x="0" y="0" width="914" height="422">
<path fill-rule="evenodd" clip-rule="evenodd" d="M679.008 19.0376C668.494 19.0376 659.97 10.5142 659.97 0H31.7293C14.2057 0 0 14.2057 0 31.7293V390.271C0 407.795 14.2057 422 31.7293 422H659.97C659.97 411.487 668.494 402.962 679.008 402.962C689.521 402.962 698.045 411.487 698.045 422H882.075C899.599 422 913.805 407.795 913.805 390.271V31.7293C913.805 14.2057 899.599 0 882.075 0H698.045C698.045 10.5142 689.521 19.0376 679.008 19.0376Z" fill="white"/>
</mask>
<g mask="url(#mask0)">
<path fill-rule="evenodd" clip-rule="evenodd" d="M679.008 19.0376C668.494 19.0376 659.97 10.5142 659.97 0H31.7293C14.2057 0 0 14.2057 0 31.7293V390.271C0 407.795 14.2057 422 31.7293 422H659.97C659.97 411.487 668.494 402.962 679.008 402.962C689.521 402.962 698.045 411.487 698.045 422H882.075C899.599 422 913.805 407.795 913.805 390.271V31.7293C913.805 14.2057 899.599 0 882.075 0H698.045C698.045 10.5142 689.521 19.0376 679.008 19.0376Z" fill="#121214"/>
<path d="M659.97 -9.53674e-07H664.729V-4.7594H659.97V-9.53674e-07ZM679.007 19.0376V14.2782V19.0376ZM659.97 422V426.759H664.729V422H659.97ZM698.045 422H693.286V426.759H698.045V422ZM698.045 -9.53674e-07V-4.7594H693.286V-9.53674e-07H698.045ZM655.21 -9.53674e-07C655.21 13.1427 665.865 23.797 679.007 23.797V14.2782C671.121 14.2782 664.729 7.88562 664.729 -9.53674e-07H655.21ZM31.7292 4.7594H659.97V-4.7594H31.7292V4.7594ZM4.75928 31.7293C4.75928 16.8343 16.8342 4.7594 31.7292 4.7594V-4.7594C11.577 -4.7594 -4.75952 11.5772 -4.75952 31.7293H4.75928ZM4.75928 390.271V31.7293H-4.75952V390.271H4.75928ZM31.7292 417.241C16.8342 417.241 4.75928 405.166 4.75928 390.271H-4.75952C-4.75952 410.424 11.577 426.759 31.7292 426.759V417.241ZM659.97 417.241H31.7292V426.759H659.97V417.241ZM664.729 422C664.729 414.114 671.121 407.722 679.007 407.722V398.203C665.865 398.203 655.21 408.858 655.21 422H664.729ZM679.007 407.722C686.894 407.722 693.286 414.114 693.286 422H702.804C702.804 408.858 692.15 398.203 679.007 398.203V407.722ZM882.075 417.241H698.045V426.759H882.075V417.241ZM909.045 390.271C909.045 405.166 896.97 417.241 882.075 417.241V426.759C902.228 426.759 918.564 410.424 918.564 390.271H909.045ZM909.045 31.7293V390.271H918.564V31.7293H909.045ZM882.075 4.7594C896.97 4.7594 909.045 16.8343 909.045 31.7293H918.564C918.564 11.5772 902.228 -4.7594 882.075 -4.7594V4.7594ZM698.045 4.7594H882.075V-4.7594H698.045V4.7594ZM679.007 23.797C692.15 23.797 702.804 13.1427 702.804 -9.53674e-07H693.286C693.286 7.88562 686.894 14.2782 679.007 14.2782V23.797Z" fill="url(#paint0_linear)"/>
<path d="M677.421 33.3158V385.511" stroke="#5E1F80" stroke-width="2" stroke-dasharray="8 8"/>
</g>
<defs>
<linearGradient id="paint0_linear" x1="-0.000140049" y1="-57.1128" x2="966.78" y2="354.769" gradientUnits="userSpaceOnUse">
<stop stop-color="#8257E6"/>
<stop offset="1" stop-color="#A32DDF"/>
</linearGradient>
</defs>
</svg>
