<svg width="914" height="422" viewBox="0 0 914 422" fill="none" xmlns="http://www.w3.org/2000/svg">
<mask id="mask0" mask-type="alpha" maskUnits="userSpaceOnUse" x="0" y="0" width="914" height="422">
<path fill-rule="evenodd" clip-rule="evenodd" d="M679.153 19.0376C668.637 19.0376 660.111 10.5142 660.111 0H31.7361C14.2087 0 0 14.2057 0 31.7293V390.271C0 407.795 14.2087 422 31.7361 422H660.111C660.111 411.487 668.637 402.962 679.153 402.962C689.669 402.962 698.194 411.487 698.194 422H882.264C899.792 422 914 407.795 914 390.271V31.7293C914 14.2057 899.792 0 882.264 0H698.194C698.194 10.5142 689.669 19.0376 679.153 19.0376Z" fill="white"/>
</mask>
<g mask="url(#mask0)">
<path fill-rule="evenodd" clip-rule="evenodd" d="M679.153 19.0376C668.637 19.0376 660.111 10.5142 660.111 0H31.7361C14.2087 0 0 14.2057 0 31.7293V390.271C0 407.795 14.2087 422 31.7361 422H660.111C660.111 411.487 668.637 402.962 679.153 402.962C689.669 402.962 698.194 411.487 698.194 422H882.264C899.792 422 914 407.795 914 390.271V31.7293C914 14.2057 899.792 0 882.264 0H698.194C698.194 10.5142 689.669 19.0376 679.153 19.0376Z" fill="#121214"/>
<path d="M660.111 -4.76837e-07H664.871V-4.7594H660.111V-4.76837e-07ZM679.152 19.0376V14.2782V19.0376ZM660.111 422V426.759H664.871V422H660.111ZM698.194 422H693.434V426.759H698.194V422ZM698.194 -4.76837e-07V-4.7594H693.434V-4.76837e-07H698.194ZM655.35 -4.76837e-07C655.35 13.1427 666.007 23.797 679.152 23.797V14.2782C671.264 14.2782 664.871 7.88563 664.871 -4.76837e-07H655.35ZM31.7358 4.7594H660.111V-4.7594H31.7358V4.7594ZM4.76009 31.7293C4.76009 16.8343 16.8376 4.7594 31.7358 4.7594V-4.7594C11.5793 -4.7594 -4.76074 11.5772 -4.76074 31.7293H4.76009ZM4.76009 390.271V31.7293H-4.76074V390.271H4.76009ZM31.7358 417.241C16.8376 417.241 4.76009 405.166 4.76009 390.271H-4.76074C-4.76074 410.424 11.5793 426.759 31.7358 426.759V417.241ZM660.111 417.241H31.7358V426.759H660.111V417.241ZM664.871 422C664.871 414.114 671.264 407.722 679.152 407.722V398.203C666.007 398.203 655.35 408.858 655.35 422H664.871ZM679.152 407.722C687.04 407.722 693.434 414.114 693.434 422H702.955C702.955 408.858 692.298 398.203 679.152 398.203V407.722ZM882.264 417.241H698.194V426.759H882.264V417.241ZM909.239 390.271C909.239 405.166 897.162 417.241 882.264 417.241V426.759C902.421 426.759 918.76 410.424 918.76 390.271H909.239ZM909.239 31.7293V390.271H918.76V31.7293H909.239ZM882.264 4.7594C897.162 4.7594 909.239 16.8343 909.239 31.7293H918.76C918.76 11.5772 902.421 -4.7594 882.264 -4.7594V4.7594ZM698.194 4.7594H882.264V-4.7594H698.194V4.7594ZM679.152 23.797C692.298 23.797 702.955 13.1427 702.955 -4.76837e-07H693.434C693.434 7.88563 687.04 14.2782 679.152 14.2782V23.797Z" fill="url(#paint0_linear)"/>
<path d="M677.566 33.3158V385.511" stroke="#187080" stroke-width="2" stroke-dasharray="8 8"/>
</g>
<defs>
<linearGradient id="paint0_linear" x1="-0.000342664" y1="-57.1128" x2="966.923" y2="354.918" gradientUnits="userSpaceOnUse">
<stop stop-color="#8257E6"/>
<stop offset="1" stop-color="#2AC7E3"/>
</linearGradient>
</defs>
</svg>
