<svg width="914" height="422" viewBox="0 0 914 422" fill="none" xmlns="http://www.w3.org/2000/svg">
<mask id="mask0" mask-type="alpha" maskUnits="userSpaceOnUse" x="0" y="0" width="914" height="422">
<path fill-rule="evenodd" clip-rule="evenodd" d="M679.153 19.0376C668.637 19.0376 660.111 10.5142 660.111 0H31.7361C14.2087 0 0 14.2057 0 31.7293V390.271C0 407.795 14.2087 422 31.7361 422H660.111C660.111 411.486 668.637 402.962 679.153 402.962C689.669 402.962 698.194 411.486 698.194 422H882.264C899.792 422 914 407.795 914 390.271V31.7293C914 14.2057 899.792 0 882.264 0H698.194C698.194 10.5142 689.669 19.0376 679.153 19.0376Z" fill="white"/>
</mask>
<g mask="url(#mask0)">
<path fill-rule="evenodd" clip-rule="evenodd" d="M679.153 19.0376C668.637 19.0376 660.111 10.5142 660.111 0H31.7361C14.2087 0 0 14.2057 0 31.7293V390.271C0 407.795 14.2087 422 31.7361 422H660.111C660.111 411.486 668.637 402.962 679.153 402.962C689.669 402.962 698.194 411.486 698.194 422H882.264C899.792 422 914 407.795 914 390.271V31.7293C914 14.2057 899.792 0 882.264 0H698.194C698.194 10.5142 689.669 19.0376 679.153 19.0376Z" fill="url(#paint0_linear)"/>
<path d="M660.111 -1.19209e-06H664.872V-4.7594H660.111V-1.19209e-06ZM679.153 19.0376V14.2782V19.0376ZM660.111 422V426.759H664.872V422H660.111ZM698.195 422H693.434V426.759H698.195V422ZM698.195 -1.19209e-06V-4.7594H693.434V-1.19209e-06H698.195ZM655.351 -1.19209e-06C655.351 13.1427 666.008 23.797 679.153 23.797V14.2782C671.265 14.2782 664.872 7.88562 664.872 -1.19209e-06H655.351ZM31.7363 4.7594H660.111V-4.7594H31.7363V4.7594ZM4.76058 31.7293C4.76058 16.8343 16.8381 4.7594 31.7363 4.7594V-4.7594C11.5798 -4.7594 -4.76025 11.5772 -4.76025 31.7293H4.76058ZM4.76058 390.271V31.7293H-4.76025V390.271H4.76058ZM31.7363 417.241C16.8381 417.241 4.76058 405.166 4.76058 390.271H-4.76025C-4.76025 410.424 11.5798 426.759 31.7363 426.759V417.241ZM660.111 417.241H31.7363V426.759H660.111V417.241ZM664.872 422C664.872 414.114 671.265 407.722 679.153 407.722V398.203C666.008 398.203 655.351 408.858 655.351 422H664.872ZM679.153 407.722C687.041 407.722 693.434 414.114 693.434 422H702.955C702.955 408.858 692.298 398.203 679.153 398.203V407.722ZM882.264 417.241H698.195V426.759H882.264V417.241ZM909.24 390.271C909.24 405.166 897.163 417.241 882.264 417.241V426.759C902.421 426.759 918.761 410.424 918.761 390.271H909.24ZM909.24 31.7293V390.271H918.761V31.7293H909.24ZM882.264 4.7594C897.163 4.7594 909.24 16.8343 909.24 31.7293H918.761C918.761 11.5772 902.421 -4.7594 882.264 -4.7594V4.7594ZM698.195 4.7594H882.264V-4.7594H698.195V4.7594ZM679.153 23.797C692.298 23.797 702.955 13.1427 702.955 -1.19209e-06H693.434C693.434 7.88562 687.041 14.2782 679.153 14.2782V23.797Z" fill="url(#paint1_linear)"/>
<path d="M677.566 33.3158V385.511" stroke="#187080" stroke-width="2" stroke-dasharray="8 8"/>
</g>
<defs>
<linearGradient id="paint0_linear" x1="6.34722" y1="6.34589" x2="913.933" y2="422.147" gradientUnits="userSpaceOnUse">
<stop stop-color="#1D1C33"/>
<stop offset="1" stop-color="#092D33"/>
</linearGradient>
<linearGradient id="paint1_linear" x1="0.000145617" y1="-57.1128" x2="966.923" y2="354.918" gradientUnits="userSpaceOnUse">
<stop stop-color="#8257E6"/>
<stop offset="1" stop-color="#2AC7E3"/>
</linearGradient>
</defs>
</svg>
