<svg width="82" height="86" viewBox="0 0 82 86" fill="none" xmlns="http://www.w3.org/2000/svg">
<path d="M56.9589 80.3565C61.8459 78.2806 66.2141 75.3396 69.9768 71.577C73.7827 67.8143 76.7236 63.4461 78.7996 58.5591C80.7457 53.9747 81.827 49.174 82 44.2004H78.7563C78.5833 48.7416 77.5886 53.1097 75.8154 57.3048C73.9124 61.8028 71.1877 65.8249 67.7279 69.328C64.2679 72.7879 60.2026 75.5126 55.7046 77.4156C51.0338 79.405 46.1034 80.3998 41 80.3998C40.481 80.3998 39.9188 80.3998 39.3998 80.3565C38.3186 80.3132 37.2374 80.2268 36.1561 80.097C32.7827 79.6645 29.4526 78.7563 26.2954 77.4156C21.7974 75.5126 17.732 72.7879 14.2722 69.328C11.9367 66.9926 9.90402 64.3976 8.30381 61.5433C7.78482 60.5918 7.26584 59.6403 6.7901 58.6888L3.8924 60.1593C4.36816 61.1539 4.84388 62.1054 5.40612 63.0137C7.22258 66.1708 9.42827 69.0253 11.98 71.6202C15.7426 75.3829 20.1108 78.3238 24.9979 80.3998C28.5875 81.9135 32.3069 82.9082 36.1128 83.3407C37.1941 83.4704 38.2753 83.5569 39.3565 83.6002C39.8755 83.6002 40.4377 83.6435 40.9567 83.6435C46.5359 83.6002 51.8987 82.519 56.9589 80.3565ZM81.7405 37.713C81.308 33.9072 80.3132 30.1446 78.7996 26.5981C76.7236 21.711 73.7827 17.3429 70.0201 13.5802C68.5496 12.1097 66.9926 10.769 65.3491 9.558C64.4842 8.90926 63.5327 8.30378 62.6245 7.6983C60.8513 6.57382 58.9483 5.62234 57.0021 4.80062C53.4125 3.2869 49.6931 2.29218 45.8872 1.85969V5.10337C49.2606 5.53586 52.5907 6.44408 55.7478 7.7848C57.3048 8.43354 58.8186 9.21201 60.289 10.077C61.2405 10.6392 62.1487 11.2447 63.0569 11.8935C64.7437 13.1044 66.3006 14.4451 67.771 15.9156C71.231 19.3755 73.9556 23.4409 75.8586 27.9388C77.1994 31.0959 78.1076 34.4262 78.5401 37.7996C78.6699 38.8808 78.7563 39.962 78.7996 41.0433H82C81.9567 39.8755 81.8703 38.7944 81.7405 37.713ZM5.53587 55.6613C3.97891 51.4662 3.20043 47.0981 3.20043 42.6002C3.20043 37.4968 4.19515 32.5665 6.18461 27.8955C7.00634 25.9494 8.00106 24.0896 9.08227 22.3165C9.68777 21.4082 10.2933 20.5 10.9852 19.6351L8.69305 17.3429C8.00106 18.2078 7.39558 19.0728 6.7901 19.981C5.40612 22.0569 4.2384 24.3059 3.24368 26.5981C1.08123 31.6582 5.01035e-06 37.021 4.76837e-06 42.5569C4.54907e-06 47.5738 0.908234 52.4609 2.6382 57.1318L5.53587 55.6613ZM26.2954 7.74155C30.4472 5.96835 34.8587 4.97361 39.3998 4.8006C39.9188 4.75736 40.481 4.75737 41 4.75737C41.519 4.75737 42.0812 4.75736 42.6002 4.8006V1.55694C42.0812 1.55694 41.519 1.5137 41 1.5137C40.4377 1.5137 39.9188 1.51369 39.3998 1.55694C34.4262 1.72993 29.6255 2.81116 25.0411 4.75737C20.1541 6.83332 15.7859 9.77424 12.0232 13.5369C11.5907 13.9694 11.2015 14.3586 10.8122 14.7911L13.1044 17.0833C13.4937 16.6509 13.8829 16.2184 14.3154 15.829C17.732 12.3692 21.7974 9.6445 26.2954 7.74155Z" fill="url(#paint0_angular)"/>
<path d="M27.7368 46.8679C29.9339 46.8679 31.715 45.0868 31.715 42.8897C31.715 40.6925 29.9339 38.9113 27.7368 38.9113C25.5397 38.9113 23.7584 40.6925 23.7584 42.8897C23.7584 45.0868 25.5397 46.8679 27.7368 46.8679Z" fill="#04D361"/>
<path d="M41.3098 46.8666C43.5069 46.8666 45.288 45.0854 45.288 42.8883C45.288 40.6911 43.5069 38.9101 41.3098 38.9101C39.1126 38.9101 37.3314 40.6911 37.3314 42.8883C37.3314 45.0854 39.1126 46.8666 41.3098 46.8666Z" fill="#04D361"/>
<path d="M54.8244 46.8666C57.0216 46.8666 58.8027 45.0854 58.8027 42.8883C58.8027 40.6911 57.0216 38.9101 54.8244 38.9101C52.6273 38.9101 50.8461 40.6911 50.8461 42.8883C50.8461 45.0854 52.6273 46.8666 54.8244 46.8666Z" fill="#04D361"/>
<defs>
<radialGradient id="paint0_angular" cx="0" cy="0" r="1" gradientUnits="userSpaceOnUse" gradientTransform="translate(41 42.5785) rotate(-85.4202) scale(46.1873 48.1433)">
<stop stop-color="#8257E6" stop-opacity="0"/>
<stop offset="1" stop-color="#8257E6"/>
</radialGradient>
</defs>
</svg>
