<svg width="82" height="84" viewBox="0 0 82 84" fill="none" xmlns="http://www.w3.org/2000/svg">
<path d="M56.8006 79.2794C61.6743 77.2092 66.0302 74.2765 69.7824 70.5242C73.5778 66.7721 76.5105 62.4161 78.5807 57.5426C80.5216 52.9709 81.5997 48.1835 81.7722 43.2237H78.5376C78.3651 47.7522 77.3731 52.1083 75.6049 56.2918C73.7072 60.7772 70.9901 64.7882 67.5397 68.2815C64.0895 71.7319 60.0354 74.449 55.55 76.3467C50.8921 78.3307 45.9754 79.3225 40.8861 79.3225C40.3686 79.3225 39.808 79.3225 39.2904 79.2794C38.2121 79.2363 37.134 79.15 36.0557 79.0207C32.6917 78.5894 29.3707 77.6836 26.2224 76.3467C21.737 74.449 17.6828 71.7319 14.2326 68.2815C11.9036 65.9526 9.87655 63.3649 8.28079 60.5184C7.76325 59.5695 7.2457 58.6207 6.77129 57.672L3.88166 59.1382C4.35607 60.1303 4.83049 61.0791 5.39115 61.9849C7.20258 65.1332 9.40214 67.9797 11.9467 70.5674C15.6989 74.3196 20.0549 77.2523 24.9284 79.3225C28.5082 80.8321 32.2173 81.824 36.0126 82.2553C37.0909 82.3846 38.169 82.4709 39.2473 82.514C39.7648 82.514 40.3255 82.5571 40.843 82.5571C46.4067 82.514 51.7546 81.4359 56.8006 79.2794ZM81.5135 36.7544C81.0822 32.9591 80.0903 29.2069 78.5807 25.6704C76.5105 20.7967 73.5778 16.4408 69.8256 12.6886C68.3591 11.2222 66.8066 9.88519 65.1677 8.67759C64.3051 8.03065 63.3562 7.42686 62.4506 6.82305C60.6823 5.7017 58.7846 4.75286 56.8438 3.93342C53.2642 2.42391 49.555 1.43195 45.7598 1.00066V4.23533C49.1238 4.66661 52.4448 5.57233 55.5931 6.90932C57.1458 7.55624 58.6552 8.33255 60.1216 9.19513C61.0704 9.75581 61.9762 10.3596 62.8818 11.0066C64.5639 12.2142 66.1164 13.5511 67.5829 15.0175C71.0332 18.4678 73.7503 22.5219 75.648 27.0073C76.9849 30.1556 77.8907 33.4767 78.322 36.8406C78.4514 37.9189 78.5376 38.9971 78.5807 40.0754H81.7722C81.7291 38.9108 81.6428 37.8327 81.5135 36.7544ZM5.52055 54.6528C3.96791 50.4693 3.19159 46.1135 3.19159 41.6281C3.19159 36.5387 4.18355 31.6221 6.16748 26.9642C6.98693 25.0234 7.97889 23.1688 9.05711 21.4006C9.66092 20.4948 10.2647 19.5892 10.9548 18.7267L8.66895 16.4407C7.97889 17.3034 7.3751 18.1659 6.77129 19.0717C5.39117 21.1419 4.22669 23.3846 3.23472 25.6704C1.07828 30.7164 6.12764e-05 36.0644 6.10352e-05 41.5849C6.08165e-05 46.5878 0.90577 51.4614 2.63093 56.1193L5.52055 54.6528ZM26.2224 6.86618C30.3628 5.09789 34.7619 4.10594 39.2904 3.93342C39.808 3.89029 40.3686 3.89029 40.8861 3.89029C41.4038 3.89029 41.9644 3.89029 42.4819 3.93342V0.698758C41.9644 0.698758 41.4038 0.65564 40.8861 0.65564C40.3255 0.65564 39.808 0.655629 39.2904 0.698756C34.3307 0.871272 29.5432 1.94951 24.9716 3.89029C20.098 5.96047 15.742 8.89324 11.9899 12.6454C11.5586 13.0767 11.1704 13.4649 10.7823 13.8962L13.0681 16.1819C13.4562 15.7507 13.8444 15.3194 14.2757 14.9313C17.6828 11.481 21.737 8.76384 26.2224 6.86618Z" fill="url(#paint0_angular)"/>
<path d="M43.0641 20.0422H38.7081V49.801H43.0641V20.0422Z" fill="#04D361"/>
<path d="M43.4093 56.3565H38.3633V63.2571H43.4093V56.3565Z" fill="#04D361"/>
<defs>
<radialGradient id="paint0_angular" cx="0" cy="0" r="1" gradientUnits="userSpaceOnUse" gradientTransform="translate(40.8861 41.6065) rotate(-85.4202) scale(46.0589 48.0095)">
<stop stop-color="#8257E6" stop-opacity="0"/>
<stop offset="1" stop-color="#8257E6"/>
</radialGradient>
</defs>
</svg>
