<svg width="51" height="47" viewBox="0 0 51 47" fill="none" xmlns="http://www.w3.org/2000/svg">
<path fill-rule="evenodd" clip-rule="evenodd" d="M49.5579 4.10153C49.7245 4.26767 49.8567 4.46503 49.9468 4.68231C50.037 4.89959 50.0834 5.13253 50.0834 5.36778C50.0834 5.60303 50.037 5.83596 49.9468 6.05325C49.8567 6.27053 49.7245 6.46789 49.5579 6.63403L24.5191 31.6728C24.353 31.8394 24.1556 31.9715 23.9383 32.0617C23.7211 32.1519 23.4881 32.1983 23.2529 32.1983C23.0176 32.1983 22.7847 32.1519 22.5674 32.0617C22.3501 31.9715 22.1528 31.8394 21.9866 31.6728L11.2557 20.9419C11.0894 20.7756 10.9575 20.5782 10.8675 20.361C10.7775 20.1437 10.7312 19.9108 10.7312 19.6757C10.7312 19.4405 10.7775 19.2076 10.8675 18.9904C10.9575 18.7731 11.0894 18.5757 11.2557 18.4094C11.422 18.2431 11.6194 18.1112 11.8367 18.0212C12.0539 17.9312 12.2868 17.8849 12.5219 17.8849C12.7571 17.8849 12.99 17.9312 13.2072 18.0212C13.4245 18.1112 13.6219 18.2431 13.7882 18.4094L23.2529 27.8777L47.0255 4.10153C47.1916 3.93498 47.389 3.80283 47.6062 3.71267C47.8235 3.62251 48.0565 3.5761 48.2917 3.5761C48.5269 3.5761 48.7599 3.62251 48.9772 3.71267C49.1945 3.80283 49.3918 3.93498 49.5579 4.10153Z" fill="#04D361"/>
<path fill-rule="evenodd" clip-rule="evenodd" d="M23.2504 3.57999C19.3593 3.57999 15.5557 4.73382 12.3204 6.89555C9.08517 9.05729 6.56358 12.1299 5.07455 15.7247C3.58552 19.3195 3.19593 23.2752 3.95503 27.0914C4.71413 30.9077 6.58783 34.4132 9.3392 37.1645C12.0906 39.9159 15.596 41.7896 19.4123 42.5487C23.2285 43.3078 27.1842 42.9182 30.779 41.4292C34.3739 39.9401 37.4464 37.4186 39.6082 34.1833C41.7699 30.948 42.9237 27.1444 42.9237 23.2534C42.9237 22.779 43.1122 22.3241 43.4476 21.9887C43.783 21.6533 44.2379 21.4649 44.7122 21.4649C45.1866 21.4649 45.6415 21.6533 45.9769 21.9887C46.3123 22.3241 46.5007 22.779 46.5007 23.2534C46.5001 28.3714 44.8107 33.3463 41.6945 37.4064C38.5784 41.4664 34.2096 44.3849 29.2658 45.7091C24.322 47.0332 19.0794 46.6892 14.3511 44.7302C9.62281 42.7712 5.67299 39.3068 3.11424 34.8743C0.555492 30.4417 -0.469197 25.2887 0.199089 20.2145C0.867375 15.1402 3.19129 10.4283 6.81043 6.80937C10.4296 3.19047 15.1417 0.866855 20.216 0.198894C25.2903 -0.469066 30.4432 0.555953 34.8755 3.11499C35.0893 3.22679 35.2782 3.38068 35.4309 3.56739C35.5836 3.7541 35.697 3.96977 35.7642 4.20143C35.8314 4.43309 35.8511 4.67595 35.822 4.9154C35.7929 5.15485 35.7157 5.38594 35.595 5.59478C35.4742 5.80361 35.3125 5.98587 35.1196 6.13058C34.9266 6.2753 34.7063 6.37949 34.472 6.43687C34.2378 6.49426 33.9943 6.50366 33.7563 6.46451C33.5183 6.42536 33.2906 6.33847 33.0871 6.20907C30.0975 4.48029 26.7038 3.57324 23.2504 3.57999Z" fill="#04D361"/>
</svg>
